<svg version="1.1" id="Layer_1" xmlns="http://www.w3.org/2000/svg" xmlns:xlink="http://www.w3.org/1999/xlink" x="0px" y="0px"
	 width="100%" viewBox="0 0 2075 2120" enable-background="new 0 0 2075 2120" xml:space="preserve">
<path fill="#010101" opacity="1.000000" stroke="none" 
	d="
M1206.000000,2122.000000 
	C804.047668,2122.000000 403.095306,2122.000000 2.071489,2122.000000 
	C2.071489,1415.464966 2.071489,708.929993 2.071489,2.197472 
	C693.786072,2.197472 1385.572266,2.197472 2077.679199,2.197472 
	C2077.679199,708.666565 2077.679199,1415.333252 2077.679199,2122.000000 
	C1787.595825,2122.000000 1497.297974,2122.000000 1206.000000,2122.000000 
M1791.612671,1406.397827 
	C1793.786377,1405.715454 1796.737305,1405.879517 1796.047974,1402.000977 
	C1796.047974,1402.000977 1796.206421,1402.189575 1797.701904,1402.551270 
	C1800.916748,1400.940063 1806.432129,1401.598267 1805.081909,1395.048218 
	C1805.081909,1395.048218 1805.319824,1394.849121 1806.544678,1395.770874 
	C1807.495483,1395.577515 1808.746826,1395.707520 1809.353271,1395.143677 
	C1823.794556,1381.714966 1838.406250,1368.453125 1852.388916,1354.559204 
	C1856.074463,1350.897095 1857.777588,1345.240112 1860.887939,1339.591064 
	C1861.451538,1339.196655 1862.015015,1338.802368 1863.976685,1338.596436 
	C1868.535278,1333.080933 1873.782959,1327.942505 1874.613159,1319.097656 
	C1875.189209,1318.148071 1875.765381,1317.198364 1877.760620,1316.282593 
	C1885.914673,1308.150146 1887.910645,1296.682617 1893.425171,1287.114990 
	C1893.764771,1286.526001 1892.585205,1285.061279 1892.500366,1282.715820 
	C1893.178955,1280.587036 1893.857666,1278.458252 1895.858765,1275.974487 
	C1897.881226,1270.809204 1902.214844,1266.266724 1900.252319,1258.646484 
	C1901.054688,1256.561401 1901.857056,1254.476318 1904.142212,1252.075562 
	C1907.122314,1242.723877 1911.148926,1233.554565 1909.121704,1221.916992 
	C1909.213623,1218.148071 1909.305542,1214.379028 1910.883545,1210.009155 
	C1911.220947,1207.432739 1911.853394,1204.856079 1911.850952,1202.279907 
	C1911.823364,1173.643799 1911.623901,1145.007690 1911.611816,1116.371582 
	C1911.572144,1021.715088 1911.510498,927.058594 1911.605835,832.402161 
	C1911.740112,699.096802 1912.019409,565.791565 1912.151245,432.486176 
	C1912.154785,428.999420 1911.169556,425.511719 1910.588745,420.148041 
	C1910.611938,338.896088 1910.635132,257.644104 1912.350952,176.214661 
	C1912.956787,175.136429 1914.082886,174.061203 1914.089233,172.979507 
	C1914.164917,159.912491 1914.177246,146.842209 1913.881226,133.780106 
	C1913.849365,132.370041 1911.778076,131.006195 1910.564575,128.210648 
	C1910.548340,126.797783 1910.532104,125.384918 1911.597168,123.328735 
	C1912.138794,120.512833 1911.095703,119.258179 1908.005493,119.975044 
	C1908.005493,119.975044 1908.149292,119.824394 1908.297729,118.232773 
	C1904.759644,117.008278 1901.256836,114.864792 1897.677124,114.727875 
	C1885.915771,114.277977 1874.125000,114.465553 1862.349609,114.658165 
	C1860.702515,114.685112 1859.078491,116.110023 1855.690552,117.319336 
	C1793.075073,117.359482 1730.459595,117.413040 1667.844116,117.392647 
	C1665.233154,117.391792 1662.622314,116.700447 1658.930542,115.095367 
	C1650.379883,114.912239 1641.727905,112.778984 1631.895020,117.039406 
	C1621.377930,119.040657 1619.803955,120.922897 1619.705200,131.254761 
	C1619.590576,143.243637 1619.246338,155.232040 1619.265259,167.220230 
	C1619.482300,304.829987 1619.672485,442.439850 1620.023071,580.049316 
	C1620.441650,744.276001 1621.012451,908.502197 1621.490601,1072.728760 
	C1621.501221,1076.373291 1621.238770,1080.022095 1621.017700,1083.663574 
	C1620.496338,1092.255737 1619.145264,1100.881836 1619.553101,1109.426392 
	C1620.165161,1122.248413 1617.680176,1134.451050 1613.586182,1146.286987 
	C1609.686035,1157.562134 1602.143799,1166.002075 1591.378174,1171.943237 
	C1579.815674,1178.324097 1567.889038,1178.513428 1555.225220,1177.748535 
	C1541.049438,1176.892090 1530.067261,1170.712158 1520.012329,1161.408447 
	C1507.080200,1149.442383 1500.970093,1133.471802 1495.180298,1117.781128 
	C1484.542725,1088.952637 1474.683594,1059.783813 1465.883545,1030.343384 
	C1454.234375,991.371155 1443.469849,952.118347 1433.134766,912.773499 
	C1420.188232,863.487915 1408.005737,814.000916 1395.600586,764.573975 
	C1384.819580,721.618469 1374.668945,678.498596 1363.368286,635.681335 
	C1349.243774,582.166077 1334.379883,528.827332 1315.273926,476.819183 
	C1303.398071,444.491699 1291.895142,411.959259 1278.287231,380.353119 
	C1261.269287,340.826965 1241.436646,302.627716 1216.487061,267.307983 
	C1191.524414,231.969955 1163.622192,199.441406 1129.331543,172.662338 
	C1099.838013,149.629593 1067.476074,132.118759 1032.067749,120.118828 
	C1016.356140,114.794182 1000.262085,111.436584 983.925537,108.460945 
	C963.580933,104.755272 943.079468,102.982880 922.676331,103.436745 
	C896.932190,104.009415 871.200806,106.893784 845.559448,109.664566 
	C831.482117,111.185745 817.364990,113.627151 803.681885,117.232750 
	C777.113220,124.233788 750.877808,132.525970 726.441162,145.429810 
	C705.015747,156.743515 683.648376,168.291367 665.633972,184.818726 
	C657.311829,192.453888 649.427673,200.623489 641.885071,209.035065 
	C634.631348,217.124527 627.601685,225.502960 621.313904,234.351547 
	C609.565430,250.884750 601.185913,269.217651 593.765747,288.068848 
	C584.851990,310.714600 581.178711,334.634003 577.234253,358.311371 
	C574.764587,373.135956 576.322021,388.669617 576.460815,403.881592 
	C576.667358,426.505615 577.552063,449.126251 577.567261,471.748718 
	C577.672424,628.711304 577.783264,785.674255 577.584961,942.636719 
	C577.398499,1090.229370 576.823059,1237.821533 576.452026,1385.413818 
	C576.406189,1403.656494 576.549438,1421.899902 576.637817,1440.142700 
	C576.661499,1445.031006 579.175476,1448.436279 583.662781,1449.946899 
	C586.109924,1450.770874 588.902222,1450.569702 591.278748,1451.164185 
	C591.278748,1451.164185 591.459167,1451.546875 592.256409,1453.248291 
	C604.107788,1453.387085 615.959106,1453.525879 629.227173,1453.875488 
	C631.533691,1453.815063 634.272034,1454.502686 636.304626,1450.797119 
	C696.038818,1450.812134 755.772949,1450.827148 815.884705,1452.466553 
	C816.362183,1452.893555 816.834534,1453.687256 817.317993,1453.693970 
	C829.370178,1453.865356 841.424255,1454.031494 853.475342,1453.915894 
	C854.491638,1453.906250 855.488953,1451.908569 858.173218,1450.786377 
	C866.488586,1448.458130 866.501770,1448.458496 866.699341,1441.381958 
	C866.755127,1439.384277 866.709717,1437.383667 866.709778,1435.384399 
	C866.714294,1120.166870 866.692444,804.949341 866.797119,489.731842 
	C866.802673,472.891083 867.196350,455.993469 868.608704,439.223328 
	C870.769714,413.561951 884.228943,397.786224 909.265625,391.171509 
	C923.201050,387.489716 936.391907,389.162689 946.364258,401.364746 
	C953.290771,409.839935 961.152466,417.678131 967.159912,426.751923 
	C981.833191,448.915009 993.642822,472.734161 1003.889221,497.210876 
	C1024.642700,546.787292 1043.025513,597.281982 1059.311157,648.488098 
	C1073.681396,693.671448 1087.428589,739.063660 1100.710693,784.579590 
	C1116.224121,837.741516 1131.001221,891.119080 1145.971924,944.438416 
	C1157.090332,984.036926 1168.017700,1023.689148 1179.011963,1063.322510 
	C1186.455444,1090.155762 1193.717163,1117.040405 1201.338867,1143.822876 
	C1207.961792,1167.095337 1214.695435,1190.343750 1221.879028,1213.447632 
	C1234.401367,1253.721558 1253.418945,1290.776978 1278.165894,1324.922852 
	C1304.612793,1361.413940 1336.932861,1391.326538 1375.717529,1414.527100 
	C1399.410522,1428.700073 1423.743774,1441.206421 1450.165405,1451.636841 
	C1462.692505,1458.754639 1476.781616,1460.540771 1490.550659,1463.395874 
	C1490.933350,1463.475220 1491.507324,1462.631470 1493.186646,1462.477173 
	C1493.999512,1462.528931 1494.812500,1462.580811 1495.852051,1463.954468 
	C1498.502686,1466.236816 1501.201294,1466.886230 1505.224976,1464.182983 
	C1506.029297,1464.331299 1506.833496,1464.479614 1507.896362,1465.835571 
	C1509.957764,1467.718628 1512.001831,1468.297485 1515.682129,1466.065430 
	C1519.619263,1466.390381 1523.556274,1466.715332 1527.801147,1468.228516 
	C1529.867188,1468.166138 1531.933228,1468.103760 1535.700317,1468.179810 
	C1539.654907,1468.390747 1543.609497,1468.601685 1547.707886,1470.049438 
	C1550.432617,1471.943237 1552.865112,1472.469360 1556.190186,1468.531616 
	C1570.003174,1468.571777 1583.816040,1468.611816 1597.659180,1469.757080 
	C1599.712280,1471.750854 1601.405151,1471.946655 1604.125366,1468.770874 
	C1608.086792,1468.588745 1612.048096,1468.406738 1616.726562,1469.213257 
	C1619.075928,1469.557129 1621.756836,1470.751343 1624.184204,1466.931763 
	C1628.123169,1466.631592 1632.062256,1466.331421 1636.768677,1466.938965 
	C1639.199097,1467.493286 1641.641968,1468.076782 1643.553345,1464.350098 
	C1644.369507,1464.248901 1645.185791,1464.147583 1646.730469,1464.987549 
	C1649.166992,1465.567505 1651.553955,1466.025146 1653.795654,1462.469727 
	C1655.197754,1462.327271 1656.599854,1462.184937 1658.896973,1463.232422 
	C1659.532837,1463.382324 1660.228760,1463.781616 1660.795898,1463.645508 
	C1674.335083,1460.394531 1687.878418,1457.156128 1701.354980,1453.660156 
	C1702.478760,1453.368652 1703.133423,1451.267822 1705.024048,1449.245605 
	C1706.702515,1449.054688 1708.380859,1448.863770 1710.623535,1449.624023 
	C1711.867065,1448.607178 1713.110718,1447.590210 1715.487915,1446.089600 
	C1716.996338,1445.480347 1718.504883,1444.871094 1720.479248,1445.291138 
	C1721.806885,1444.470337 1723.134521,1443.649658 1725.690552,1442.301392 
	C1728.481934,1441.115967 1731.273193,1439.930664 1734.727051,1439.903687 
	C1739.528809,1437.859863 1744.384644,1435.928101 1749.076294,1433.657349 
	C1749.819092,1433.297729 1749.821289,1431.408081 1751.356445,1429.620483 
	C1754.905396,1427.767456 1758.454468,1425.914429 1762.657715,1425.125732 
	C1769.150391,1421.798340 1775.731812,1418.626221 1782.058105,1415.007935 
	C1783.278564,1414.309814 1783.499878,1411.864624 1784.059570,1410.004639 
	C1784.059570,1410.004639 1784.222412,1410.198486 1785.608032,1410.553345 
	C1787.123779,1409.098267 1788.639526,1407.643311 1790.012329,1406.015259 
	C1790.012329,1406.015259 1790.182007,1406.161743 1791.612671,1406.397827 
M406.704010,623.711548 
	C405.019806,614.482178 403.519073,613.071106 394.742981,612.589417 
	C393.081146,612.498230 391.410950,612.551819 389.744598,612.551575 
	C327.090485,612.543396 264.436371,612.532593 201.782257,612.531982 
	C177.786774,612.531799 153.790436,612.662659 129.796509,612.475769 
	C125.084389,612.439087 120.883743,613.215271 118.766449,617.450317 
	C117.395912,620.191711 117.147552,623.712463 117.141472,626.885437 
	C117.021339,689.537476 116.998718,752.189697 116.983345,814.841919 
	C116.977699,837.836792 117.121132,860.831970 117.058525,883.826538 
	C116.899765,942.133240 116.511108,1000.439758 116.503517,1058.746338 
	C116.497002,1108.723267 116.895386,1158.700317 117.103615,1208.677246 
	C117.142487,1218.006836 117.519669,1227.356079 117.056152,1236.662109 
	C116.151619,1254.822388 113.953796,1272.950439 113.774475,1291.106445 
	C113.535225,1315.330566 113.675285,1339.648682 115.547188,1363.779419 
	C117.695114,1391.468262 121.373001,1419.075439 125.374916,1446.574219 
	C130.293732,1480.373291 136.538727,1514.020386 146.974594,1546.589966 
	C155.638870,1573.630615 165.052444,1600.504028 175.711151,1626.812622 
	C186.916931,1654.471558 201.716003,1680.408203 217.647125,1705.719116 
	C233.757034,1731.313965 252.789185,1754.568481 273.258026,1776.586426 
	C294.971283,1799.943359 319.392456,1820.347656 345.886719,1838.251587 
	C383.296387,1863.531616 422.787445,1884.519409 465.763763,1898.812988 
	C484.309662,1904.981201 503.041534,1910.245605 522.017517,1914.919067 
	C547.442200,1921.180542 573.088867,1925.844727 599.108093,1928.471069 
	C609.650818,1929.535278 620.258057,1929.957397 630.834412,1930.692871 
	C656.594421,1932.484009 682.348450,1935.759155 708.113892,1935.848633 
	C879.045532,1936.442383 1049.979858,1936.262451 1220.912231,1936.706421 
	C1231.662598,1936.734253 1238.400879,1930.008667 1234.692627,1917.893677 
	C1233.739746,1914.780884 1232.780151,1911.499390 1232.773315,1908.293457 
	C1232.665527,1857.641846 1232.713745,1806.989746 1232.724243,1756.337891 
	C1232.730591,1726.013184 1232.775024,1695.688477 1232.712891,1665.363892 
	C1232.693604,1656.001709 1230.583618,1653.778931 1220.983154,1653.558594 
	C1200.078735,1653.078979 1179.168579,1652.626465 1158.260132,1652.596313 
	C1141.957031,1652.572876 1125.653320,1653.479248 1109.349365,1653.498413 
	C1011.367615,1653.613159 913.385620,1653.691650 815.403992,1653.569702 
	C770.436890,1653.513794 725.464050,1653.323975 680.505798,1652.523193 
	C653.775635,1652.046997 628.095520,1645.528320 603.183899,1635.954956 
	C568.588196,1622.660278 540.058289,1600.551270 515.518799,1573.464844 
	C482.803894,1537.354248 459.886292,1495.077393 442.638336,1449.784302 
	C430.234314,1417.211182 422.269470,1383.404541 415.542511,1349.153198 
	C409.375366,1317.752319 407.213257,1286.003784 407.093719,1254.452026 
	C406.299561,1044.825928 406.696442,835.195374 406.704010,623.711548 
z"/>
<path fill="#FEFEFE" opacity="1.000000" stroke="none" 
	d="
M1862.578613,1338.407959 
	C1862.015015,1338.802368 1861.451538,1339.196655 1859.955933,1340.048340 
	C1849.351807,1351.000610 1839.920654,1361.731934 1829.930420,1371.914673 
	C1822.085083,1379.911011 1813.548950,1387.229492 1805.319824,1394.849121 
	C1805.319824,1394.849121 1805.081909,1395.048218 1804.349854,1395.295166 
	C1801.147217,1397.757935 1798.676758,1399.973755 1796.206299,1402.189453 
	C1796.206421,1402.189575 1796.047974,1402.000977 1795.444092,1401.978638 
	C1793.287598,1403.358154 1791.734741,1404.759888 1790.181885,1406.161621 
	C1790.182007,1406.161743 1790.012329,1406.015259 1789.428223,1406.072021 
	C1787.303589,1407.485352 1785.763062,1408.841919 1784.222412,1410.198486 
	C1784.222412,1410.198486 1784.059570,1410.004639 1783.414795,1410.060059 
	C1775.847778,1414.764282 1768.925659,1419.412964 1762.003418,1424.061523 
	C1758.454468,1425.914429 1754.905396,1427.767456 1750.031738,1429.857788 
	C1743.826172,1432.978516 1738.945312,1435.861938 1734.064453,1438.745361 
	C1731.273193,1439.930664 1728.481934,1441.115967 1724.437256,1442.267944 
	C1722.126953,1442.910278 1721.070068,1443.586060 1720.013306,1444.261719 
	C1718.504883,1444.871094 1716.996338,1445.480347 1714.218628,1446.131592 
	C1711.985962,1447.006592 1711.022705,1447.839600 1710.059326,1448.672729 
	C1708.380859,1448.863770 1706.702515,1449.054688 1703.726318,1449.514404 
	C1690.595825,1452.947998 1678.756836,1456.089844 1666.934570,1459.293945 
	C1663.929443,1460.108521 1660.978027,1461.120972 1658.001953,1462.042480 
	C1656.599854,1462.184937 1655.197754,1462.327271 1652.427612,1462.328491 
	C1649.373657,1462.807007 1647.687866,1463.426758 1646.001953,1464.046387 
	C1645.185791,1464.147583 1644.369507,1464.248901 1642.281738,1464.170044 
	C1639.340332,1464.670410 1637.670776,1465.350708 1636.001221,1466.031128 
	C1632.062256,1466.331421 1628.123169,1466.631592 1622.695068,1466.581055 
	C1619.473755,1466.895020 1617.741577,1467.559814 1616.009521,1468.224609 
	C1612.048096,1468.406738 1608.086792,1468.588745 1602.508545,1468.443359 
	C1599.804199,1468.294434 1598.716675,1468.473145 1597.629028,1468.651855 
	C1583.816040,1468.611816 1570.003174,1468.571777 1554.446045,1468.285889 
	C1550.989258,1468.297485 1549.276733,1468.555054 1547.564087,1468.812744 
	C1543.609497,1468.601685 1539.654907,1468.390747 1534.494385,1467.438232 
	C1531.356689,1466.811279 1529.425049,1466.925781 1527.493408,1467.040283 
	C1523.556274,1466.715332 1519.619263,1466.390381 1514.495239,1465.264893 
	C1511.418213,1464.518921 1509.527954,1464.573486 1507.637817,1464.628052 
	C1506.833496,1464.479614 1506.029297,1464.331299 1504.090332,1463.630737 
	C1500.512329,1462.929810 1498.068848,1462.781128 1495.625366,1462.632568 
	C1494.812500,1462.580811 1493.999512,1462.528931 1492.311279,1461.618164 
	C1487.968262,1459.838013 1484.510376,1458.878174 1481.031128,1458.003052 
	C1470.640015,1455.389526 1460.240479,1452.809326 1449.844238,1450.216187 
	C1423.743774,1441.206421 1399.410522,1428.700073 1375.717529,1414.527100 
	C1336.932861,1391.326538 1304.612793,1361.413940 1278.165894,1324.922852 
	C1253.418945,1290.776978 1234.401367,1253.721558 1221.879028,1213.447632 
	C1214.695435,1190.343750 1207.961792,1167.095337 1201.338867,1143.822876 
	C1193.717163,1117.040405 1186.455444,1090.155762 1179.011963,1063.322510 
	C1168.017700,1023.689148 1157.090332,984.036926 1145.971924,944.438416 
	C1131.001221,891.119080 1116.224121,837.741516 1100.710693,784.579590 
	C1087.428589,739.063660 1073.681396,693.671448 1059.311157,648.488098 
	C1043.025513,597.281982 1024.642700,546.787292 1003.889221,497.210876 
	C993.642822,472.734161 981.833191,448.915009 967.159912,426.751923 
	C961.152466,417.678131 953.290771,409.839935 946.364258,401.364746 
	C936.391907,389.162689 923.201050,387.489716 909.265625,391.171509 
	C884.228943,397.786224 870.769714,413.561951 868.608704,439.223328 
	C867.196350,455.993469 866.802673,472.891083 866.797119,489.731842 
	C866.692444,804.949341 866.714294,1120.166870 866.709778,1435.384399 
	C866.709717,1437.383667 866.755127,1439.384277 866.699341,1441.381958 
	C866.501770,1448.458496 866.488586,1448.458130 856.423096,1450.454346 
	C841.617676,1450.362183 828.562439,1450.602173 815.507141,1450.842285 
	C755.772949,1450.827148 696.038818,1450.812134 634.488525,1450.460571 
	C618.961304,1450.359619 605.250061,1450.595215 591.538879,1450.830688 
	C588.902222,1450.569702 586.109924,1450.770874 583.662781,1449.946899 
	C579.175476,1448.436279 576.661499,1445.031006 576.637817,1440.142700 
	C576.549438,1421.899902 576.406189,1403.656494 576.452026,1385.413818 
	C576.823059,1237.821533 577.398499,1090.229370 577.584961,942.636719 
	C577.783264,785.674255 577.672424,628.711304 577.567261,471.748718 
	C577.552063,449.126251 576.667358,426.505615 576.460815,403.881592 
	C576.322021,388.669617 574.764587,373.135956 577.234253,358.311371 
	C581.178711,334.634003 584.851990,310.714600 593.765747,288.068848 
	C601.185913,269.217651 609.565430,250.884750 621.313904,234.351547 
	C627.601685,225.502960 634.631348,217.124527 641.885071,209.035065 
	C649.427673,200.623489 657.311829,192.453888 665.633972,184.818726 
	C683.648376,168.291367 705.015747,156.743515 726.441162,145.429810 
	C750.877808,132.525970 777.113220,124.233788 803.681885,117.232750 
	C817.364990,113.627151 831.482117,111.185745 845.559448,109.664566 
	C871.200806,106.893784 896.932190,104.009415 922.676331,103.436745 
	C943.079468,102.982880 963.580933,104.755272 983.925537,108.460945 
	C1000.262085,111.436584 1016.356140,114.794182 1032.067749,120.118828 
	C1067.476074,132.118759 1099.838013,149.629593 1129.331543,172.662338 
	C1163.622192,199.441406 1191.524414,231.969955 1216.487061,267.307983 
	C1241.436646,302.627716 1261.269287,340.826965 1278.287231,380.353119 
	C1291.895142,411.959259 1303.398071,444.491699 1315.273926,476.819183 
	C1334.379883,528.827332 1349.243774,582.166077 1363.368286,635.681335 
	C1374.668945,678.498596 1384.819580,721.618469 1395.600586,764.573975 
	C1408.005737,814.000916 1420.188232,863.487915 1433.134766,912.773499 
	C1443.469849,952.118347 1454.234375,991.371155 1465.883545,1030.343384 
	C1474.683594,1059.783813 1484.542725,1088.952637 1495.180298,1117.781128 
	C1500.970093,1133.471802 1507.080200,1149.442383 1520.012329,1161.408447 
	C1530.067261,1170.712158 1541.049438,1176.892090 1555.225220,1177.748535 
	C1567.889038,1178.513428 1579.815674,1178.324097 1591.378174,1171.943237 
	C1602.143799,1166.002075 1609.686035,1157.562134 1613.586182,1146.286987 
	C1617.680176,1134.451050 1620.165161,1122.248413 1619.553101,1109.426392 
	C1619.145264,1100.881836 1620.496338,1092.255737 1621.017700,1083.663574 
	C1621.238770,1080.022095 1621.501221,1076.373291 1621.490601,1072.728760 
	C1621.012451,908.502197 1620.441650,744.276001 1620.023071,580.049316 
	C1619.672485,442.439850 1619.482300,304.829987 1619.265259,167.220230 
	C1619.246338,155.232040 1619.590576,143.243637 1619.705200,131.254761 
	C1619.803955,120.922897 1621.377930,119.040657 1633.489014,117.206406 
	C1643.392456,117.025864 1651.702026,116.678322 1660.011475,116.330780 
	C1662.622314,116.700447 1665.233154,117.391792 1667.844116,117.392647 
	C1730.459595,117.413040 1793.075073,117.359482 1857.493896,117.420425 
	C1868.799805,117.619064 1878.311401,117.493523 1887.801392,117.889297 
	C1894.599121,118.172798 1901.367676,119.154305 1908.149292,119.824387 
	C1908.149292,119.824394 1908.005493,119.975044 1908.020996,120.566650 
	C1908.862915,122.096191 1909.689331,123.034119 1910.515869,123.972054 
	C1910.532104,125.384918 1910.548340,126.797783 1910.180908,129.794479 
	C1909.723267,136.291885 1909.488037,141.209457 1909.609131,146.118225 
	C1909.857910,156.212021 1910.297363,166.301117 1910.658447,176.392151 
	C1910.635132,257.644104 1910.611938,338.896088 1909.915527,421.588623 
	C1908.833862,426.931488 1908.071411,430.833466 1908.068604,434.735992 
	C1908.001343,527.960876 1908.005981,621.185852 1908.017090,714.410767 
	C1908.036133,874.224792 1908.055176,1034.038818 1908.149658,1193.852905 
	C1908.153076,1199.438843 1908.963257,1205.024414 1909.397461,1210.610107 
	C1909.305542,1214.379028 1909.213623,1218.148071 1908.453857,1222.950195 
	C1906.077148,1233.452637 1904.368408,1242.921997 1902.659546,1252.391235 
	C1901.857056,1254.476318 1901.054688,1256.561401 1899.539551,1259.630615 
	C1897.396729,1265.853149 1895.966553,1271.091309 1894.536377,1276.329590 
	C1893.857666,1278.458252 1893.178955,1280.587036 1891.609863,1283.536133 
	C1885.926758,1294.987183 1881.134033,1305.617920 1876.341431,1316.248657 
	C1875.765381,1317.198364 1875.189209,1318.148071 1873.662598,1319.651733 
	C1869.334106,1326.273193 1865.956299,1332.340576 1862.578613,1338.407959 
z"/>
<path fill="#FEFEFE" opacity="1.000000" stroke="none" 
	d="
M406.704987,624.638916 
	C406.696442,835.195374 406.299561,1044.825928 407.093719,1254.452026 
	C407.213257,1286.003784 409.375366,1317.752319 415.542511,1349.153198 
	C422.269470,1383.404541 430.234314,1417.211182 442.638336,1449.784302 
	C459.886292,1495.077393 482.803894,1537.354248 515.518799,1573.464844 
	C540.058289,1600.551270 568.588196,1622.660278 603.183899,1635.954956 
	C628.095520,1645.528320 653.775635,1652.046997 680.505798,1652.523193 
	C725.464050,1653.323975 770.436890,1653.513794 815.403992,1653.569702 
	C913.385620,1653.691650 1011.367615,1653.613159 1109.349365,1653.498413 
	C1125.653320,1653.479248 1141.957031,1652.572876 1158.260132,1652.596313 
	C1179.168579,1652.626465 1200.078735,1653.078979 1220.983154,1653.558594 
	C1230.583618,1653.778931 1232.693604,1656.001709 1232.712891,1665.363892 
	C1232.775024,1695.688477 1232.730591,1726.013184 1232.724243,1756.337891 
	C1232.713745,1806.989746 1232.665527,1857.641846 1232.773315,1908.293457 
	C1232.780151,1911.499390 1233.739746,1914.780884 1234.692627,1917.893677 
	C1238.400879,1930.008667 1231.662598,1936.734253 1220.912231,1936.706421 
	C1049.979858,1936.262451 879.045532,1936.442383 708.113892,1935.848633 
	C682.348450,1935.759155 656.594421,1932.484009 630.834412,1930.692871 
	C620.258057,1929.957397 609.650818,1929.535278 599.108093,1928.471069 
	C573.088867,1925.844727 547.442200,1921.180542 522.017517,1914.919067 
	C503.041534,1910.245605 484.309662,1904.981201 465.763763,1898.812988 
	C422.787445,1884.519409 383.296387,1863.531616 345.886719,1838.251587 
	C319.392456,1820.347656 294.971283,1799.943359 273.258026,1776.586426 
	C252.789185,1754.568481 233.757034,1731.313965 217.647125,1705.719116 
	C201.716003,1680.408203 186.916931,1654.471558 175.711151,1626.812622 
	C165.052444,1600.504028 155.638870,1573.630615 146.974594,1546.589966 
	C136.538727,1514.020386 130.293732,1480.373291 125.374916,1446.574219 
	C121.373001,1419.075439 117.695114,1391.468262 115.547188,1363.779419 
	C113.675285,1339.648682 113.535225,1315.330566 113.774475,1291.106445 
	C113.953796,1272.950439 116.151619,1254.822388 117.056152,1236.662109 
	C117.519669,1227.356079 117.142487,1218.006836 117.103615,1208.677246 
	C116.895386,1158.700317 116.497002,1108.723267 116.503517,1058.746338 
	C116.511108,1000.439758 116.899765,942.133240 117.058525,883.826538 
	C117.121132,860.831970 116.977699,837.836792 116.983345,814.841919 
	C116.998718,752.189697 117.021339,689.537476 117.141472,626.885437 
	C117.147552,623.712463 117.395912,620.191711 118.766449,617.450317 
	C120.883743,613.215271 125.084389,612.439087 129.796509,612.475769 
	C153.790436,612.662659 177.786774,612.531799 201.782257,612.531982 
	C264.436371,612.532593 327.090485,612.543396 389.744598,612.551575 
	C391.410950,612.551819 393.081146,612.498230 394.742981,612.589417 
	C403.519073,613.071106 405.019806,614.482178 406.704987,624.638916 
z"/>
<path fill="#707071" opacity="1.000000" stroke="none" 
	d="
M1910.140503,1210.309570 
	C1908.963257,1205.024414 1908.153076,1199.438843 1908.149658,1193.852905 
	C1908.055176,1034.038818 1908.036133,874.224792 1908.017090,714.410767 
	C1908.005981,621.185852 1908.001343,527.960876 1908.068604,434.735992 
	C1908.071411,430.833466 1908.833862,426.931488 1909.943848,422.526855 
	C1911.169556,425.511719 1912.154785,428.999420 1912.151245,432.486176 
	C1912.019409,565.791565 1911.740112,699.096802 1911.605835,832.402161 
	C1911.510498,927.058594 1911.572144,1021.715088 1911.611816,1116.371582 
	C1911.623901,1145.007690 1911.823364,1173.643799 1911.850952,1202.279907 
	C1911.853394,1204.856079 1911.220947,1207.432739 1910.140503,1210.309570 
z"/>
<path fill="#707071" opacity="1.000000" stroke="none" 
	d="
M1805.932251,1395.310059 
	C1813.548950,1387.229492 1822.085083,1379.911011 1829.930420,1371.914673 
	C1839.920654,1361.731934 1849.351807,1351.000610 1859.707397,1340.502441 
	C1857.777588,1345.240112 1856.074463,1350.897095 1852.388916,1354.559204 
	C1838.406250,1368.453125 1823.794556,1381.714966 1809.353271,1395.143677 
	C1808.746826,1395.707520 1807.495483,1395.577515 1805.932251,1395.310059 
z"/>
<path fill="#707071" opacity="1.000000" stroke="none" 
	d="
M1908.223511,119.028580 
	C1901.367676,119.154305 1894.599121,118.172798 1887.801392,117.889297 
	C1878.311401,117.493523 1868.799805,117.619064 1858.370605,117.204666 
	C1859.078491,116.110023 1860.702515,114.685112 1862.349609,114.658165 
	C1874.125000,114.465553 1885.915771,114.277977 1897.677124,114.727875 
	C1901.256836,114.864792 1904.759644,117.008278 1908.223511,119.028580 
z"/>
<path fill="#707071" opacity="1.000000" stroke="none" 
	d="
M1911.504639,176.303406 
	C1910.297363,166.301117 1909.857910,156.212021 1909.609131,146.118225 
	C1909.488037,141.209457 1909.723267,136.291885 1910.224854,130.499603 
	C1911.778076,131.006195 1913.849365,132.370041 1913.881226,133.780106 
	C1914.177246,146.842209 1914.164917,159.912491 1914.089233,172.979507 
	C1914.082886,174.061203 1912.956787,175.136429 1911.504639,176.303406 
z"/>
<path fill="#707071" opacity="1.000000" stroke="none" 
	d="
M1658.449463,1462.637451 
	C1660.978027,1461.120972 1663.929443,1460.108521 1666.934570,1459.293945 
	C1678.756836,1456.089844 1690.595825,1452.947998 1703.217407,1449.895264 
	C1703.133423,1451.267822 1702.478760,1453.368652 1701.354980,1453.660156 
	C1687.878418,1457.156128 1674.335083,1460.394531 1660.795898,1463.645508 
	C1660.228760,1463.781616 1659.532837,1463.382324 1658.449463,1462.637451 
z"/>
<path fill="#787878" opacity="1.000000" stroke="none" 
	d="
M815.695923,1451.654419 
	C828.562439,1450.602173 841.617676,1450.362183 855.584045,1450.478271 
	C855.488953,1451.908569 854.491638,1453.906250 853.475342,1453.915894 
	C841.424255,1454.031494 829.370178,1453.865356 817.317993,1453.693970 
	C816.834534,1453.687256 816.362183,1452.893555 815.695923,1451.654419 
z"/>
<path fill="#707071" opacity="1.000000" stroke="none" 
	d="
M1450.004883,1450.926514 
	C1460.240479,1452.809326 1470.640015,1455.389526 1481.031128,1458.003052 
	C1484.510376,1458.878174 1487.968262,1459.838013 1491.714111,1461.488770 
	C1491.507324,1462.631470 1490.933350,1463.475220 1490.550659,1463.395874 
	C1476.781616,1460.540771 1462.692505,1458.754639 1450.004883,1450.926514 
z"/>
<path fill="#707071" opacity="1.000000" stroke="none" 
	d="
M1877.051025,1316.265625 
	C1881.134033,1305.617920 1885.926758,1294.987183 1891.415771,1284.180176 
	C1892.585205,1285.061279 1893.764771,1286.526001 1893.425171,1287.114990 
	C1887.910645,1296.682617 1885.914673,1308.150146 1877.051025,1316.265625 
z"/>
<path fill="#707071" opacity="1.000000" stroke="none" 
	d="
M1659.470947,115.713074 
	C1651.702026,116.678322 1643.392456,117.025864 1634.229614,116.898361 
	C1641.727905,112.778984 1650.379883,114.912239 1659.470947,115.713074 
z"/>
<path fill="#707071" opacity="1.000000" stroke="none" 
	d="
M1903.400879,1252.233398 
	C1904.368408,1242.921997 1906.077148,1233.452637 1908.468506,1223.659302 
	C1911.148926,1233.554565 1907.122314,1242.723877 1903.400879,1252.233398 
z"/>
<path fill="#707071" opacity="1.000000" stroke="none" 
	d="
M1762.330566,1424.593628 
	C1768.925659,1419.412964 1775.847778,1414.764282 1783.476074,1410.170410 
	C1783.499878,1411.864624 1783.278564,1414.309814 1782.058105,1415.007935 
	C1775.731812,1418.626221 1769.150391,1421.798340 1762.330566,1424.593628 
z"/>
<path fill="#787878" opacity="1.000000" stroke="none" 
	d="
M591.408813,1450.997437 
	C605.250061,1450.595215 618.961304,1450.359619 633.584106,1450.479004 
	C634.272034,1454.502686 631.533691,1453.815063 627.907715,1453.234863 
	C614.878540,1452.245117 603.168884,1451.895996 591.459167,1451.546875 
	C591.459167,1451.546875 591.278748,1451.164185 591.408813,1450.997437 
z"/>
<path fill="#707071" opacity="1.000000" stroke="none" 
	d="
M1863.277588,1338.502197 
	C1865.956299,1332.340576 1869.334106,1326.273193 1873.404419,1320.154907 
	C1873.782959,1327.942505 1868.535278,1333.080933 1863.277588,1338.502197 
z"/>
<path fill="#9A9A9A" opacity="1.000000" stroke="none" 
	d="
M591.857788,1452.397583 
	C603.168884,1451.895996 614.878540,1452.245117 627.199341,1453.129395 
	C615.959106,1453.525879 604.107788,1453.387085 591.857788,1452.397583 
z"/>
<path fill="#707071" opacity="1.000000" stroke="none" 
	d="
M1734.395752,1439.324463 
	C1738.945312,1435.861938 1743.826172,1432.978516 1749.436523,1430.160522 
	C1749.821289,1431.408081 1749.819092,1433.297729 1749.076294,1433.657349 
	C1744.384644,1435.928101 1739.528809,1437.859863 1734.395752,1439.324463 
z"/>
<path fill="#707071" opacity="1.000000" stroke="none" 
	d="
M1895.197510,1276.152100 
	C1895.966553,1271.091309 1897.396729,1265.853149 1899.494629,1260.309082 
	C1902.214844,1266.266724 1897.881226,1270.809204 1895.197510,1276.152100 
z"/>
<path fill="#707071" opacity="1.000000" stroke="none" 
	d="
M1796.954102,1402.370361 
	C1798.676758,1399.973755 1801.147217,1397.757935 1804.246582,1395.410889 
	C1806.432129,1401.598267 1800.916748,1400.940063 1796.954102,1402.370361 
z"/>
<path fill="#707071" opacity="1.000000" stroke="none" 
	d="
M1495.738770,1463.293457 
	C1498.068848,1462.781128 1500.512329,1462.929810 1503.477051,1463.636353 
	C1501.201294,1466.886230 1498.502686,1466.236816 1495.738770,1463.293457 
z"/>
<path fill="#707071" opacity="1.000000" stroke="none" 
	d="
M1547.635986,1469.431030 
	C1549.276733,1468.555054 1550.989258,1468.297485 1553.533203,1468.333740 
	C1552.865112,1472.469360 1550.432617,1471.943237 1547.635986,1469.431030 
z"/>
<path fill="#707071" opacity="1.000000" stroke="none" 
	d="
M1616.368042,1468.718994 
	C1617.741577,1467.559814 1619.473755,1466.895020 1621.850342,1466.596924 
	C1621.756836,1470.751343 1619.075928,1469.557129 1616.368042,1468.718994 
z"/>
<path fill="#707071" opacity="1.000000" stroke="none" 
	d="
M1646.366211,1464.516968 
	C1647.687866,1463.426758 1649.373657,1462.807007 1651.730713,1462.437500 
	C1651.553955,1466.025146 1649.166992,1465.567505 1646.366211,1464.516968 
z"/>
<path fill="#707071" opacity="1.000000" stroke="none" 
	d="
M1507.767090,1465.231812 
	C1509.527954,1464.573486 1511.418213,1464.518921 1513.656372,1465.109375 
	C1512.001831,1468.297485 1509.957764,1467.718628 1507.767090,1465.231812 
z"/>
<path fill="#707071" opacity="1.000000" stroke="none" 
	d="
M1636.385010,1466.484985 
	C1637.670776,1465.350708 1639.340332,1464.670410 1641.672119,1464.275879 
	C1641.641968,1468.076782 1639.199097,1467.493286 1636.385010,1466.484985 
z"/>
<path fill="#707071" opacity="1.000000" stroke="none" 
	d="
M1527.647217,1467.634277 
	C1529.425049,1466.925781 1531.356689,1466.811279 1533.643799,1467.369141 
	C1531.933228,1468.103760 1529.867188,1468.166138 1527.647217,1467.634277 
z"/>
<path fill="#707071" opacity="1.000000" stroke="none" 
	d="
M1784.915283,1410.375977 
	C1785.763062,1408.841919 1787.303589,1407.485352 1789.499756,1406.158447 
	C1788.639526,1407.643311 1787.123779,1409.098267 1784.915283,1410.375977 
z"/>
<path fill="#707071" opacity="1.000000" stroke="none" 
	d="
M1790.897217,1406.279785 
	C1791.734741,1404.759888 1793.287598,1403.358154 1795.505737,1402.084473 
	C1796.737305,1405.879517 1793.786377,1405.715454 1790.897217,1406.279785 
z"/>
<path fill="#707071" opacity="1.000000" stroke="none" 
	d="
M1710.341431,1449.148438 
	C1711.022705,1447.839600 1711.985962,1447.006592 1713.651855,1446.373413 
	C1713.110718,1447.590210 1711.867065,1448.607178 1710.341431,1449.148438 
z"/>
<path fill="#707071" opacity="1.000000" stroke="none" 
	d="
M1720.246338,1444.776367 
	C1721.070068,1443.586060 1722.126953,1442.910278 1723.822998,1442.531738 
	C1723.134521,1443.649658 1721.806885,1444.470337 1720.246338,1444.776367 
z"/>
<path fill="#707071" opacity="1.000000" stroke="none" 
	d="
M1597.644043,1469.204468 
	C1598.716675,1468.473145 1599.804199,1468.294434 1601.660278,1468.458618 
	C1601.405151,1471.946655 1599.712280,1471.750854 1597.644043,1469.204468 
z"/>
<path fill="#707071" opacity="1.000000" stroke="none" 
	d="
M1911.056519,123.650391 
	C1909.689331,123.034119 1908.862915,122.096191 1908.105225,120.506203 
	C1911.095703,119.258179 1912.138794,120.512833 1911.056519,123.650391 
z"/>
</svg>